{
  "accessors": [
    {
      "name": "ORIGAMI_Chat_1_0_positions",
      "componentType": 5126,
      "count": 664,
      "min": [
        -6.344099998474121,
        0,
        -31.0669002532959
      ],
      "max": [
        6.344099998474121,
        35.27579879760742,
        30.8218994140625
      ],
      "type": "VEC3",
      "bufferView": 0,
      "byteOffset": 0
    },
    {
      "name": "ORIGAMI_Chat_1_0_normals",
      "componentType": 5126,
      "count": 664,
      "min": [
        -0.9696031808853149,
        -0.9997662901878357,
        -0.9657331109046936
      ],
      "max": [
        0.9903461933135986,
        0.9997662901878357,
        1
      ],
      "type": "VEC3",
      "bufferView": 1,
      "byteOffset": 0
    },
    {
      "name": "ORIGAMI_Chat_1_0_texcoords",
      "componentType": 5126,
      "count": 664,
      "min": [
        0.0005000000237487257,
        0.002899999963119626
      ],
      "max": [
        0.9994999766349792,
        0.9994999766349792
      ],
      "type": "VEC2",
      "bufferView": 2,
      "byteOffset": 0
    },
    {
      "name": "ORIGAMI_Chat_1_0_indices",
      "componentType": 5123,
      "count": 990,
      "min": [
        0
      ],
      "max": [
        663
      ],
      "type": "SCALAR",
      "bufferView": 3,
      "byteOffset": 0
    }
  ],
  "asset": {
    "generator": "obj2gltf",
    "version": "2.0"
  },
  "buffers": [
    {
      "name": "ORIGAMI_Chat_Free",
      "byteLength": 23228,
      "uri": "data:application/octet-stream;base64,"
    }
  ],
  "bufferViews": [
    {
      "name": "bufferView_0",
      "buffer": 0,
      "byteLength": 7968,
      "byteOffset": 0,
      "byteStride": 12,
      "target": 34962
    },
    {
      "name": "bufferView_1",
      "buffer": 0,
      "byteLength": 7968,
      "byteOffset": 7968,
      "byteStride": 12,
      "target": 34962
    },
    {
      "name": "bufferView_2",
      "buffer": 0,
      "byteLength": 5312,
      "byteOffset": 15936,
      "byteStride": 8,
      "target": 34962
    },
    {
      "name": "bufferView_3",
      "buffer": 0,
      "byteLength": 1980,
      "byteOffset": 21248,
      "target": 34963
    }
  ],
  "materials": [
    {
      "name": "wire_115115115",
      "pbrMetallicRoughness": {
        "baseColorFactor": [
          0.451,
          0.451,
          0.451,
          1
        ],
        "metallicFactor": 0,
        "roughnessFactor": 0.968
      },
      "emissiveFactor": [
        0,
        0,
        0
      ],
      "alphaMode": "OPAQUE",
      "doubleSided": false
    }
  ],
  "meshes": [
    {
      "name": "ORIGAMI_Chat_1",
      "primitives": [
        {
          "attributes": {
            "POSITION": 0,
            "NORMAL": 1,
            "TEXCOORD_0": 2
          },
          "indices": 3,
          "material": 0,
          "mode": 4
        }
      ]
    }
  ],
  "nodes": [
    {
      "name": "ORIGAMI_Chat",
      "mesh": 0
    }
  ],
  "scene": 0,
  "scenes": [
    {
      "nodes": [
        0
      ]
    }
  ]
}
